<svg id="visual" viewBox="0 0 900 150" width="900" height="150" xmlns="http://www.w3.org/2000/svg" xmlns:xlink="http://www.w3.org/1999/xlink" version="1.1"><rect x="0" y="0" width="960" height="150" fill="#fff"></rect><path d="M0 39L10 37.8C20 36.7 40 34.3 60 36.3C80 38.3 100 44.7 120 48.8C140 53 160 55 180 57C200 59 220 61 240 60.8C260 60.7 280 58.3 300 57.7C320 57 340 58 360 54.3C380 50.7 400 42.3 420 37C440 31.7 460 29.3 480 32.5C500 35.7 520 44.3 540 50.5C560 56.7 580 60.3 600 57.3C620 54.3 640 44.7 660 41.7C680 38.7 700 42.3 720 40.2C740 38 760 30 780 27.2C800 24.3 820 26.7 840 31.2C860 35.7 880 42.3 900 47C920 51.7 940 54.3 950 55.7L960 57L960 0L950 0C940 0 920 0 900 0C880 0 860 0 840 0C820 0 800 0 780 0C760 0 740 0 720 0C700 0 680 0 660 0C640 0 620 0 600 0C580 0 560 0 540 0C520 0 500 0 480 0C460 0 440 0 420 0C400 0 380 0 360 0C340 0 320 0 300 0C280 0 260 0 240 0C220 0 200 0 180 0C160 0 140 0 120 0C100 0 80 0 60 0C40 0 20 0 10 0L0 0Z" fill="#03A3EF" stroke-linecap="round" stroke-linejoin="miter"></path></svg>