<svg id="visual" viewBox="0 0 960 300" width="960" height="300" xmlns="http://www.w3.org/2000/svg" xmlns:xlink="http://www.w3.org/1999/xlink" version="1.1"><rect x="0" y="0" width="960" height="300" fill="#fff"></rect><path d="M0 201L16 198.3C32 195.7 64 190.3 96 200C128 209.7 160 234.3 192 233.2C224 232 256 205 288 189.3C320 173.7 352 169.3 384 175.8C416 182.3 448 199.7 480 209.8C512 220 544 223 576 228C608 233 640 240 672 233.8C704 227.7 736 208.3 768 198.2C800 188 832 187 864 198.5C896 210 928 234 944 246L960 258L960 301L944 301C928 301 896 301 864 301C832 301 800 301 768 301C736 301 704 301 672 301C640 301 608 301 576 301C544 301 512 301 480 301C448 301 416 301 384 301C352 301 320 301 288 301C256 301 224 301 192 301C160 301 128 301 96 301C64 301 32 301 16 301L0 301Z" fill="#00ADF0" stroke-linecap="round" stroke-linejoin="miter"></path></svg>